<svg width="74" height="16" viewBox="0 0 74 16" fill="none" xmlns="http://www.w3.org/2000/svg">
<path d="M0.570312 12V0.578125H1.89844V12H0.570312ZM10.7031 12V6.46094C10.7031 5.76302 10.5443 5.24219 10.2266 4.89844C9.90885 4.55469 9.41146 4.38281 8.73438 4.38281C7.83854 4.38281 7.18229 4.625 6.76562 5.10938C6.34896 5.59375 6.14062 6.39323 6.14062 7.50781V12H4.84375V3.4375H5.89844L6.10938 4.60938H6.17188C6.4375 4.1875 6.8099 3.86198 7.28906 3.63281C7.76823 3.39844 8.30208 3.28125 8.89062 3.28125C9.92188 3.28125 10.6979 3.53125 11.2188 4.03125C11.7396 4.52604 12 5.32031 12 6.41406V12H10.7031ZM20.1953 9.66406C20.1953 10.4609 19.8984 11.0755 19.3047 11.5078C18.7109 11.9401 17.8776 12.1562 16.8047 12.1562C15.6693 12.1562 14.7839 11.9766 14.1484 11.6172V10.4141C14.5599 10.6224 15 10.7865 15.4688 10.9062C15.9427 11.026 16.3984 11.0859 16.8359 11.0859C17.513 11.0859 18.0339 10.9792 18.3984 10.7656C18.763 10.5469 18.9453 10.2161 18.9453 9.77344C18.9453 9.4401 18.7995 9.15625 18.5078 8.92188C18.2214 8.68229 17.6589 8.40104 16.8203 8.07812C16.0234 7.78125 15.4557 7.52344 15.1172 7.30469C14.7839 7.08073 14.5339 6.82812 14.3672 6.54688C14.2057 6.26562 14.125 5.92969 14.125 5.53906C14.125 4.84115 14.4089 4.29167 14.9766 3.89062C15.5443 3.48438 16.3229 3.28125 17.3125 3.28125C18.2344 3.28125 19.1354 3.46875 20.0156 3.84375L19.5547 4.89844C18.6953 4.54427 17.9167 4.36719 17.2188 4.36719C16.6042 4.36719 16.1406 4.46354 15.8281 4.65625C15.5156 4.84896 15.3594 5.11458 15.3594 5.45312C15.3594 5.68229 15.4167 5.8776 15.5312 6.03906C15.651 6.20052 15.8411 6.35417 16.1016 6.5C16.362 6.64583 16.862 6.85677 17.6016 7.13281C18.6172 7.5026 19.3021 7.875 19.6562 8.25C20.0156 8.625 20.1953 9.09635 20.1953 9.66406ZM25.0781 11.0859C25.3073 11.0859 25.5286 11.0703 25.7422 11.0391C25.9557 11.0026 26.125 10.9661 26.25 10.9297V11.9219C26.1094 11.9896 25.901 12.0443 25.625 12.0859C25.3542 12.1328 25.1094 12.1562 24.8906 12.1562C23.2344 12.1562 22.4062 11.2839 22.4062 9.53906V4.44531H21.1797V3.82031L22.4062 3.28125L22.9531 1.45312H23.7031V3.4375H26.1875V4.44531H23.7031V9.48438C23.7031 10 23.8255 10.3958 24.0703 10.6719C24.3151 10.9479 24.651 11.0859 25.0781 11.0859ZM33.2344 12L32.9766 10.7812H32.9141C32.487 11.3177 32.0599 11.6823 31.6328 11.875C31.2109 12.0625 30.6823 12.1562 30.0469 12.1562C29.1979 12.1562 28.5312 11.9375 28.0469 11.5C27.5677 11.0625 27.3281 10.4401 27.3281 9.63281C27.3281 7.90365 28.7109 6.9974 31.4766 6.91406L32.9297 6.86719V6.33594C32.9297 5.66406 32.7839 5.16927 32.4922 4.85156C32.2057 4.52865 31.7448 4.36719 31.1094 4.36719C30.3958 4.36719 29.5885 4.58594 28.6875 5.02344L28.2891 4.03125C28.7109 3.80208 29.1719 3.6224 29.6719 3.49219C30.1771 3.36198 30.6823 3.29688 31.1875 3.29688C32.2083 3.29688 32.9635 3.52344 33.4531 3.97656C33.9479 4.42969 34.1953 5.15625 34.1953 6.15625V12H33.2344ZM30.3047 11.0859C31.112 11.0859 31.7448 10.8646 32.2031 10.4219C32.6667 9.97917 32.8984 9.35938 32.8984 8.5625V7.78906L31.6016 7.84375C30.5703 7.88021 29.8255 8.04167 29.3672 8.32812C28.9141 8.60938 28.6875 9.04948 28.6875 9.64844C28.6875 10.1172 28.8281 10.474 29.1094 10.7188C29.3958 10.9635 29.7943 11.0859 30.3047 11.0859ZM43.8828 3.4375V4.25781L42.2969 4.44531C42.4427 4.6276 42.5729 4.86719 42.6875 5.16406C42.8021 5.45573 42.8594 5.78646 42.8594 6.15625C42.8594 6.99479 42.5729 7.66406 42 8.16406C41.4271 8.66406 40.6406 8.91406 39.6406 8.91406C39.3854 8.91406 39.1458 8.89323 38.9219 8.85156C38.3698 9.14323 38.0938 9.51042 38.0938 9.95312C38.0938 10.1875 38.1901 10.362 38.3828 10.4766C38.5755 10.5859 38.9062 10.6406 39.375 10.6406H40.8906C41.8177 10.6406 42.5286 10.8359 43.0234 11.2266C43.5234 11.6172 43.7734 12.1849 43.7734 12.9297C43.7734 13.8776 43.3932 14.599 42.6328 15.0938C41.8724 15.5938 40.763 15.8438 39.3047 15.8438C38.1849 15.8438 37.3203 15.6354 36.7109 15.2188C36.1068 14.8021 35.8047 14.2135 35.8047 13.4531C35.8047 12.9323 35.9714 12.4818 36.3047 12.1016C36.638 11.7214 37.1068 11.4635 37.7109 11.3281C37.4922 11.2292 37.3073 11.0755 37.1562 10.8672C37.0104 10.6589 36.9375 10.4167 36.9375 10.1406C36.9375 9.82812 37.0208 9.55469 37.1875 9.32031C37.3542 9.08594 37.6172 8.85938 37.9766 8.64062C37.5339 8.45833 37.1719 8.14844 36.8906 7.71094C36.6146 7.27344 36.4766 6.77344 36.4766 6.21094C36.4766 5.27344 36.7578 4.55208 37.3203 4.04688C37.8828 3.53646 38.6797 3.28125 39.7109 3.28125C40.1589 3.28125 40.5625 3.33333 40.9219 3.4375H43.8828ZM37.0547 13.4375C37.0547 13.901 37.25 14.2526 37.6406 14.4922C38.0312 14.7318 38.5911 14.8516 39.3203 14.8516C40.4089 14.8516 41.2135 14.6875 41.7344 14.3594C42.2604 14.0365 42.5234 13.5964 42.5234 13.0391C42.5234 12.5755 42.3802 12.2526 42.0938 12.0703C41.8073 11.8932 41.2682 11.8047 40.4766 11.8047H38.9219C38.3333 11.8047 37.875 11.9453 37.5469 12.2266C37.2188 12.5078 37.0547 12.9115 37.0547 13.4375ZM37.7578 6.17969C37.7578 6.77865 37.9271 7.23177 38.2656 7.53906C38.6042 7.84635 39.0755 8 39.6797 8C40.9453 8 41.5781 7.38542 41.5781 6.15625C41.5781 4.86979 40.9375 4.22656 39.6562 4.22656C39.0469 4.22656 38.5781 4.39062 38.25 4.71875C37.9219 5.04688 37.7578 5.53385 37.7578 6.17969ZM49.5469 3.28125C49.9271 3.28125 50.2682 3.3125 50.5703 3.375L50.3906 4.57812C50.0365 4.5 49.724 4.46094 49.4531 4.46094C48.7604 4.46094 48.1667 4.74219 47.6719 5.30469C47.1823 5.86719 46.9375 6.56771 46.9375 7.40625V12H45.6406V3.4375H46.7109L46.8594 5.02344H46.9219C47.2396 4.46615 47.6224 4.03646 48.0703 3.73438C48.5182 3.43229 49.0104 3.28125 49.5469 3.28125ZM57.4375 12L57.1797 10.7812H57.1172C56.6901 11.3177 56.263 11.6823 55.8359 11.875C55.4141 12.0625 54.8854 12.1562 54.25 12.1562C53.401 12.1562 52.7344 11.9375 52.25 11.5C51.7708 11.0625 51.5312 10.4401 51.5312 9.63281C51.5312 7.90365 52.9141 6.9974 55.6797 6.91406L57.1328 6.86719V6.33594C57.1328 5.66406 56.987 5.16927 56.6953 4.85156C56.4089 4.52865 55.9479 4.36719 55.3125 4.36719C54.599 4.36719 53.7917 4.58594 52.8906 5.02344L52.4922 4.03125C52.9141 3.80208 53.375 3.6224 53.875 3.49219C54.3802 3.36198 54.8854 3.29688 55.3906 3.29688C56.4115 3.29688 57.1667 3.52344 57.6562 3.97656C58.151 4.42969 58.3984 5.15625 58.3984 6.15625V12H57.4375ZM54.5078 11.0859C55.3151 11.0859 55.9479 10.8646 56.4062 10.4219C56.8698 9.97917 57.1016 9.35938 57.1016 8.5625V7.78906L55.8047 7.84375C54.7734 7.88021 54.0286 8.04167 53.5703 8.32812C53.1172 8.60938 52.8906 9.04948 52.8906 9.64844C52.8906 10.1172 53.0312 10.474 53.3125 10.7188C53.599 10.9635 53.9974 11.0859 54.5078 11.0859ZM71.9922 12V6.42969C71.9922 5.7474 71.8464 5.23698 71.5547 4.89844C71.263 4.55469 70.8099 4.38281 70.1953 4.38281C69.388 4.38281 68.7917 4.61458 68.4062 5.07812C68.0208 5.54167 67.8281 6.25521 67.8281 7.21875V12H66.5312V6.42969C66.5312 5.7474 66.3854 5.23698 66.0938 4.89844C65.8021 4.55469 65.3464 4.38281 64.7266 4.38281C63.9141 4.38281 63.3177 4.6276 62.9375 5.11719C62.5625 5.60156 62.375 6.39844 62.375 7.50781V12H61.0781V3.4375H62.1328L62.3438 4.60938H62.4062C62.651 4.19271 62.9948 3.86719 63.4375 3.63281C63.8854 3.39844 64.3854 3.28125 64.9375 3.28125C66.276 3.28125 67.151 3.76562 67.5625 4.73438H67.625C67.8802 4.28646 68.25 3.93229 68.7344 3.67188C69.2188 3.41146 69.7708 3.28125 70.3906 3.28125C71.3594 3.28125 72.0833 3.53125 72.5625 4.03125C73.0469 4.52604 73.2891 5.32031 73.2891 6.41406V12H71.9922Z" fill="white"/>
</svg>
